<?xml version="1.0" encoding="utf-8"?>
<svg version="1.1" xmlns:xlink="http://www.w3.org/1999/xlink" width="66px" height="66px" xmlns="http://www.w3.org/2000/svg">
  <defs>
    <filter x="34px" y="96px" width="66px" height="66px" filterUnits="userSpaceOnUse" id="filter18">
      <feOffset dx="1" dy="1" in="SourceAlpha" result="shadowOffsetInner" />
      <feGaussianBlur stdDeviation="2.5" in="shadowOffsetInner" result="shadowGaussian" />
      <feComposite in2="shadowGaussian" operator="atop" in="SourceAlpha" result="shadowComposite" />
      <feColorMatrix type="matrix" values="0 0 0 0 0  0 0 0 0 0  0 0 0 0 0  0 0 0 0.6980392156862745 0  " in="shadowComposite" />
    </filter>
    <g id="widget19">
      <path d="M 66 100  C 81.68 100  94 112.32  94 128  C 94 143.68  81.68 156  66 156  C 50.32 156  38 143.68  38 128  C 38 112.32  50.32 100  66 100  Z " fill-rule="nonzero" fill="#b1e0ef" stroke="none" />
      <path d="M 66 100.5  C 81.4 100.5  93.5 112.6  93.5 128  C 93.5 143.4  81.4 155.5  66 155.5  C 50.599999999999994 155.5  38.5 143.4  38.5 128  C 38.5 112.6  50.599999999999994 100.5  66 100.5  Z " stroke-width="1" stroke="#ffffff" fill="none" />
    </g>
  </defs>
  <g transform="matrix(1 0 0 1 -34 -96 )">
    <use xlink:href="#widget19" filter="url(#filter18)" />
    <use xlink:href="#widget19" />
  </g>
</svg>