<?xml version="1.0" encoding="utf-8"?>
<svg version="1.1" xmlns:xlink="http://www.w3.org/1999/xlink" width="66px" height="66px" xmlns="http://www.w3.org/2000/svg">
  <defs>
    <filter x="119px" y="96px" width="66px" height="66px" filterUnits="userSpaceOnUse" id="filter20">
      <feOffset dx="1" dy="1" in="SourceAlpha" result="shadowOffsetInner" />
      <feGaussianBlur stdDeviation="2.5" in="shadowOffsetInner" result="shadowGaussian" />
      <feComposite in2="shadowGaussian" operator="atop" in="SourceAlpha" result="shadowComposite" />
      <feColorMatrix type="matrix" values="0 0 0 0 0  0 0 0 0 0  0 0 0 0 0  0 0 0 0.6980392156862745 0  " in="shadowComposite" />
    </filter>
    <g id="widget21">
      <path d="M 151 100  C 166.68 100  179 112.32  179 128  C 179 143.68  166.68 156  151 156  C 135.32 156  123 143.68  123 128  C 123 112.32  135.32 100  151 100  Z " fill-rule="nonzero" fill="#7ed7f3" stroke="none" />
      <path d="M 151 100.5  C 166.4 100.5  178.5 112.6  178.5 128  C 178.5 143.4  166.4 155.5  151 155.5  C 135.6 155.5  123.5 143.4  123.5 128  C 123.5 112.6  135.6 100.5  151 100.5  Z " stroke-width="1" stroke="#ffffff" fill="none" />
    </g>
  </defs>
  <g transform="matrix(1 0 0 1 -119 -96 )">
    <use xlink:href="#widget21" filter="url(#filter20)" />
    <use xlink:href="#widget21" />
  </g>
</svg>