<?xml version="1.0" encoding="utf-8"?>
<svg version="1.1" xmlns:xlink="http://www.w3.org/1999/xlink" width="66px" height="66px" xmlns="http://www.w3.org/2000/svg">
  <defs>
    <filter x="121px" y="189px" width="66px" height="66px" filterUnits="userSpaceOnUse" id="filter28">
      <feOffset dx="1" dy="1" in="SourceAlpha" result="shadowOffsetInner" />
      <feGaussianBlur stdDeviation="2.5" in="shadowOffsetInner" result="shadowGaussian" />
      <feComposite in2="shadowGaussian" operator="atop" in="SourceAlpha" result="shadowComposite" />
      <feColorMatrix type="matrix" values="0 0 0 0 0  0 0 0 0 0  0 0 0 0 0  0 0 0 0.6980392156862745 0  " in="shadowComposite" />
    </filter>
    <g id="widget29">
      <path d="M 153 193  C 168.68 193  181 205.32  181 221  C 181 236.68  168.68 249  153 249  C 137.32 249  125 236.68  125 221  C 125 205.32  137.32 193  153 193  Z " fill-rule="nonzero" fill="#efb1f7" stroke="none" />
      <path d="M 153 193.5  C 168.4 193.5  180.5 205.6  180.5 221  C 180.5 236.4  168.4 248.5  153 248.5  C 137.6 248.5  125.5 236.4  125.5 221  C 125.5 205.6  137.6 193.5  153 193.5  Z " stroke-width="1" stroke="#ffffff" fill="none" />
    </g>
  </defs>
  <g transform="matrix(1 0 0 1 -121 -189 )">
    <use xlink:href="#widget29" filter="url(#filter28)" />
    <use xlink:href="#widget29" />
  </g>
</svg>