<?xml version="1.0" encoding="utf-8"?>
<svg version="1.1" xmlns:xlink="http://www.w3.org/1999/xlink" width="66px" height="66px" xmlns="http://www.w3.org/2000/svg">
  <defs>
    <filter x="291px" y="189px" width="66px" height="66px" filterUnits="userSpaceOnUse" id="filter32">
      <feOffset dx="1" dy="1" in="SourceAlpha" result="shadowOffsetInner" />
      <feGaussianBlur stdDeviation="2.5" in="shadowOffsetInner" result="shadowGaussian" />
      <feComposite in2="shadowGaussian" operator="atop" in="SourceAlpha" result="shadowComposite" />
      <feColorMatrix type="matrix" values="0 0 0 0 0  0 0 0 0 0  0 0 0 0 0  0 0 0 0.6980392156862745 0  " in="shadowComposite" />
    </filter>
    <g id="widget33">
      <path d="M 323 193  C 338.68 193  351 205.32  351 221  C 351 236.68  338.68 249  323 249  C 307.32 249  295 236.68  295 221  C 295 205.32  307.32 193  323 193  Z " fill-rule="nonzero" fill="#d72cf6" stroke="none" />
      <path d="M 323 193.5  C 338.4 193.5  350.5 205.6  350.5 221  C 350.5 236.4  338.4 248.5  323 248.5  C 307.6 248.5  295.5 236.4  295.5 221  C 295.5 205.6  307.6 193.5  323 193.5  Z " stroke-width="1" stroke="#ffffff" fill="none" />
    </g>
  </defs>
  <g transform="matrix(1 0 0 1 -291 -189 )">
    <use xlink:href="#widget33" filter="url(#filter32)" />
    <use xlink:href="#widget33" />
  </g>
</svg>