<?xml version="1.0" encoding="utf-8"?>
<svg version="1.1" xmlns:xlink="http://www.w3.org/1999/xlink" width="66px" height="66px" xmlns="http://www.w3.org/2000/svg">
  <defs>
    <filter x="38px" y="284px" width="66px" height="66px" filterUnits="userSpaceOnUse" id="filter34">
      <feOffset dx="1" dy="1" in="SourceAlpha" result="shadowOffsetInner" />
      <feGaussianBlur stdDeviation="2.5" in="shadowOffsetInner" result="shadowGaussian" />
      <feComposite in2="shadowGaussian" operator="atop" in="SourceAlpha" result="shadowComposite" />
      <feColorMatrix type="matrix" values="0 0 0 0 0  0 0 0 0 0  0 0 0 0 0  0 0 0 0.6980392156862745 0  " in="shadowComposite" />
    </filter>
    <g id="widget35">
      <path d="M 70 288  C 85.68 288  98 300.32  98 316  C 98 331.68  85.68 344  70 344  C 54.32 344  42 331.68  42 316  C 42 300.32  54.32 288  70 288  Z " fill-rule="nonzero" fill="#efd0ab" stroke="none" />
      <path d="M 70 288.5  C 85.4 288.5  97.5 300.6  97.5 316  C 97.5 331.4  85.4 343.5  70 343.5  C 54.599999999999994 343.5  42.5 331.4  42.5 316  C 42.5 300.6  54.599999999999994 288.5  70 288.5  Z " stroke-width="1" stroke="#ffffff" fill="none" />
    </g>
  </defs>
  <g transform="matrix(1 0 0 1 -38 -284 )">
    <use xlink:href="#widget35" filter="url(#filter34)" />
    <use xlink:href="#widget35" />
  </g>
</svg>