<?xml version="1.0" encoding="utf-8"?>
<svg version="1.1" xmlns:xlink="http://www.w3.org/1999/xlink" width="66px" height="66px" xmlns="http://www.w3.org/2000/svg">
  <defs>
    <filter x="123px" y="284px" width="66px" height="66px" filterUnits="userSpaceOnUse" id="filter36">
      <feOffset dx="1" dy="1" in="SourceAlpha" result="shadowOffsetInner" />
      <feGaussianBlur stdDeviation="2.5" in="shadowOffsetInner" result="shadowGaussian" />
      <feComposite in2="shadowGaussian" operator="atop" in="SourceAlpha" result="shadowComposite" />
      <feColorMatrix type="matrix" values="0 0 0 0 0  0 0 0 0 0  0 0 0 0 0  0 0 0 0.6980392156862745 0  " in="shadowComposite" />
    </filter>
    <g id="widget37">
      <path d="M 155 288  C 170.68 288  183 300.32  183 316  C 183 331.68  170.68 344  155 344  C 139.32 344  127 331.68  127 316  C 127 300.32  139.32 288  155 288  Z " fill-rule="nonzero" fill="#f0b17f" stroke="none" />
      <path d="M 155 288.5  C 170.4 288.5  182.5 300.6  182.5 316  C 182.5 331.4  170.4 343.5  155 343.5  C 139.6 343.5  127.5 331.4  127.5 316  C 127.5 300.6  139.6 288.5  155 288.5  Z " stroke-width="1" stroke="#ffffff" fill="none" />
    </g>
  </defs>
  <g transform="matrix(1 0 0 1 -123 -284 )">
    <use xlink:href="#widget37" filter="url(#filter36)" />
    <use xlink:href="#widget37" />
  </g>
</svg>