<?xml version="1.0" encoding="utf-8"?>
<svg version="1.1" xmlns:xlink="http://www.w3.org/1999/xlink" width="66px" height="66px" xmlns="http://www.w3.org/2000/svg">
  <defs>
    <filter x="208px" y="284px" width="66px" height="66px" filterUnits="userSpaceOnUse" id="filter38">
      <feOffset dx="1" dy="1" in="SourceAlpha" result="shadowOffsetInner" />
      <feGaussianBlur stdDeviation="2.5" in="shadowOffsetInner" result="shadowGaussian" />
      <feComposite in2="shadowGaussian" operator="atop" in="SourceAlpha" result="shadowComposite" />
      <feColorMatrix type="matrix" values="0 0 0 0 0  0 0 0 0 0  0 0 0 0 0  0 0 0 0.6980392156862745 0  " in="shadowComposite" />
    </filter>
    <g id="widget39">
      <path d="M 240 288  C 255.68 288  268 300.32  268 316  C 268 331.68  255.68 344  240 344  C 224.32 344  212 331.68  212 316  C 212 300.32  224.32 288  240 288  Z " fill-rule="nonzero" fill="#ec9f67" stroke="none" />
      <path d="M 240 288.5  C 255.4 288.5  267.5 300.6  267.5 316  C 267.5 331.4  255.4 343.5  240 343.5  C 224.6 343.5  212.5 331.4  212.5 316  C 212.5 300.6  224.6 288.5  240 288.5  Z " stroke-width="1" stroke="#ffffff" fill="none" />
    </g>
  </defs>
  <g transform="matrix(1 0 0 1 -208 -284 )">
    <use xlink:href="#widget39" filter="url(#filter38)" />
    <use xlink:href="#widget39" />
  </g>
</svg>