<?xml version="1.0" encoding="utf-8"?>
<svg version="1.1" xmlns:xlink="http://www.w3.org/1999/xlink" width="66px" height="66px" xmlns="http://www.w3.org/2000/svg">
  <defs>
    <filter x="293px" y="284px" width="66px" height="66px" filterUnits="userSpaceOnUse" id="filter40">
      <feOffset dx="1" dy="1" in="SourceAlpha" result="shadowOffsetInner" />
      <feGaussianBlur stdDeviation="2.5" in="shadowOffsetInner" result="shadowGaussian" />
      <feComposite in2="shadowGaussian" operator="atop" in="SourceAlpha" result="shadowComposite" />
      <feColorMatrix type="matrix" values="0 0 0 0 0  0 0 0 0 0  0 0 0 0 0  0 0 0 0.6980392156862745 0  " in="shadowComposite" />
    </filter>
    <g id="widget41">
      <path d="M 325 288  C 340.68 288  353 300.32  353 316  C 353 331.68  340.68 344  325 344  C 309.32 344  297 331.68  297 316  C 297 300.32  309.32 288  325 288  Z " fill-rule="nonzero" fill="#ecb10a" stroke="none" />
      <path d="M 325 288.5  C 340.4 288.5  352.5 300.6  352.5 316  C 352.5 331.4  340.4 343.5  325 343.5  C 309.6 343.5  297.5 331.4  297.5 316  C 297.5 300.6  309.6 288.5  325 288.5  Z " stroke-width="1" stroke="#ffffff" fill="none" />
    </g>
  </defs>
  <g transform="matrix(1 0 0 1 -293 -284 )">
    <use xlink:href="#widget41" filter="url(#filter40)" />
    <use xlink:href="#widget41" />
  </g>
</svg>