<?xml version="1.0" encoding="utf-8"?>
<svg version="1.1" xmlns:xlink="http://www.w3.org/1999/xlink" width="66px" height="66px" xmlns="http://www.w3.org/2000/svg">
  <defs>
    <filter x="40px" y="379px" width="66px" height="66px" filterUnits="userSpaceOnUse" id="filter42">
      <feOffset dx="1" dy="1" in="SourceAlpha" result="shadowOffsetInner" />
      <feGaussianBlur stdDeviation="2.5" in="shadowOffsetInner" result="shadowGaussian" />
      <feComposite in2="shadowGaussian" operator="atop" in="SourceAlpha" result="shadowComposite" />
      <feColorMatrix type="matrix" values="0 0 0 0 0  0 0 0 0 0  0 0 0 0 0  0 0 0 0.6980392156862745 0  " in="shadowComposite" />
    </filter>
    <g id="widget43">
      <path d="M 72 383  C 87.68 383  100 395.32  100 411  C 100 426.68  87.68 439  72 439  C 56.32 439  44 426.68  44 411  C 44 395.32  56.32 383  72 383  Z " fill-rule="nonzero" fill="#c1f5c3" stroke="none" />
      <path d="M 72 383.5  C 87.4 383.5  99.5 395.6  99.5 411  C 99.5 426.4  87.4 438.5  72 438.5  C 56.599999999999994 438.5  44.5 426.4  44.5 411  C 44.5 395.6  56.599999999999994 383.5  72 383.5  Z " stroke-width="1" stroke="#ffffff" fill="none" />
    </g>
  </defs>
  <g transform="matrix(1 0 0 1 -40 -379 )">
    <use xlink:href="#widget43" filter="url(#filter42)" />
    <use xlink:href="#widget43" />
  </g>
</svg>