<?xml version="1.0" encoding="utf-8"?>
<svg version="1.1" xmlns:xlink="http://www.w3.org/1999/xlink" width="66px" height="66px" xmlns="http://www.w3.org/2000/svg">
  <defs>
    <filter x="125px" y="379px" width="66px" height="66px" filterUnits="userSpaceOnUse" id="filter44">
      <feOffset dx="1" dy="1" in="SourceAlpha" result="shadowOffsetInner" />
      <feGaussianBlur stdDeviation="2.5" in="shadowOffsetInner" result="shadowGaussian" />
      <feComposite in2="shadowGaussian" operator="atop" in="SourceAlpha" result="shadowComposite" />
      <feColorMatrix type="matrix" values="0 0 0 0 0  0 0 0 0 0  0 0 0 0 0  0 0 0 0.6980392156862745 0  " in="shadowComposite" />
    </filter>
    <g id="widget45">
      <path d="M 157 383  C 172.68 383  185 395.32  185 411  C 185 426.68  172.68 439  157 439  C 141.32 439  129 426.68  129 411  C 129 395.32  141.32 383  157 383  Z " fill-rule="nonzero" fill="#8ff9a2" stroke="none" />
      <path d="M 157 383.5  C 172.4 383.5  184.5 395.6  184.5 411  C 184.5 426.4  172.4 438.5  157 438.5  C 141.6 438.5  129.5 426.4  129.5 411  C 129.5 395.6  141.6 383.5  157 383.5  Z " stroke-width="1" stroke="#ffffff" fill="none" />
    </g>
  </defs>
  <g transform="matrix(1 0 0 1 -125 -379 )">
    <use xlink:href="#widget45" filter="url(#filter44)" />
    <use xlink:href="#widget45" />
  </g>
</svg>