<?xml version="1.0" encoding="utf-8"?>
<svg version="1.1" xmlns:xlink="http://www.w3.org/1999/xlink" width="66px" height="66px" xmlns="http://www.w3.org/2000/svg">
  <defs>
    <filter x="210px" y="379px" width="66px" height="66px" filterUnits="userSpaceOnUse" id="filter46">
      <feOffset dx="1" dy="1" in="SourceAlpha" result="shadowOffsetInner" />
      <feGaussianBlur stdDeviation="2.5" in="shadowOffsetInner" result="shadowGaussian" />
      <feComposite in2="shadowGaussian" operator="atop" in="SourceAlpha" result="shadowComposite" />
      <feColorMatrix type="matrix" values="0 0 0 0 0  0 0 0 0 0  0 0 0 0 0  0 0 0 0.6980392156862745 0  " in="shadowComposite" />
    </filter>
    <g id="widget47">
      <path d="M 242 383  C 257.68 383  270 395.32  270 411  C 270 426.68  257.68 439  242 439  C 226.32 439  214 426.68  214 411  C 214 395.32  226.32 383  242 383  Z " fill-rule="nonzero" fill="#4fd665" stroke="none" />
      <path d="M 242 383.5  C 257.4 383.5  269.5 395.6  269.5 411  C 269.5 426.4  257.4 438.5  242 438.5  C 226.6 438.5  214.5 426.4  214.5 411  C 214.5 395.6  226.6 383.5  242 383.5  Z " stroke-width="1" stroke="#ffffff" fill="none" />
    </g>
  </defs>
  <g transform="matrix(1 0 0 1 -210 -379 )">
    <use xlink:href="#widget47" filter="url(#filter46)" />
    <use xlink:href="#widget47" />
  </g>
</svg>