<?xml version="1.0" encoding="utf-8"?>
<svg version="1.1" xmlns:xlink="http://www.w3.org/1999/xlink" width="66px" height="66px" xmlns="http://www.w3.org/2000/svg">
  <defs>
    <filter x="295px" y="379px" width="66px" height="66px" filterUnits="userSpaceOnUse" id="filter48">
      <feOffset dx="1" dy="1" in="SourceAlpha" result="shadowOffsetInner" />
      <feGaussianBlur stdDeviation="2.5" in="shadowOffsetInner" result="shadowGaussian" />
      <feComposite in2="shadowGaussian" operator="atop" in="SourceAlpha" result="shadowComposite" />
      <feColorMatrix type="matrix" values="0 0 0 0 0  0 0 0 0 0  0 0 0 0 0  0 0 0 0.6980392156862745 0  " in="shadowComposite" />
    </filter>
    <g id="widget49">
      <path d="M 327 383  C 342.68 383  355 395.32  355 411  C 355 426.68  342.68 439  327 439  C 311.32 439  299 426.68  299 411  C 299 395.32  311.32 383  327 383  Z " fill-rule="nonzero" fill="#26c940" stroke="none" />
      <path d="M 327 383.5  C 342.4 383.5  354.5 395.6  354.5 411  C 354.5 426.4  342.4 438.5  327 438.5  C 311.6 438.5  299.5 426.4  299.5 411  C 299.5 395.6  311.6 383.5  327 383.5  Z " stroke-width="1" stroke="#ffffff" fill="none" />
    </g>
  </defs>
  <g transform="matrix(1 0 0 1 -295 -379 )">
    <use xlink:href="#widget49" filter="url(#filter48)" />
    <use xlink:href="#widget49" />
  </g>
</svg>