<?xml version="1.0" encoding="utf-8"?>
<svg version="1.1" xmlns:xlink="http://www.w3.org/1999/xlink" width="66px" height="66px" xmlns="http://www.w3.org/2000/svg">
  <defs>
    <filter x="38px" y="472px" width="66px" height="66px" filterUnits="userSpaceOnUse" id="filter50">
      <feOffset dx="1" dy="1" in="SourceAlpha" result="shadowOffsetInner" />
      <feGaussianBlur stdDeviation="2.5" in="shadowOffsetInner" result="shadowGaussian" />
      <feComposite in2="shadowGaussian" operator="atop" in="SourceAlpha" result="shadowComposite" />
      <feColorMatrix type="matrix" values="0 0 0 0 0  0 0 0 0 0  0 0 0 0 0  0 0 0 0.6980392156862745 0  " in="shadowComposite" />
    </filter>
    <g id="widget51">
      <path d="M 70 476  C 85.68 476  98 488.32  98 504  C 98 519.68  85.68 532  70 532  C 54.32 532  42 519.68  42 504  C 42 488.32  54.32 476  70 476  Z " fill-rule="nonzero" fill="#eefcd0" stroke="none" />
      <path d="M 70 476.5  C 85.4 476.5  97.5 488.6  97.5 504  C 97.5 519.4  85.4 531.5  70 531.5  C 54.599999999999994 531.5  42.5 519.4  42.5 504  C 42.5 488.6  54.599999999999994 476.5  70 476.5  Z " stroke-width="1" stroke="#ffffff" fill="none" />
    </g>
  </defs>
  <g transform="matrix(1 0 0 1 -38 -472 )">
    <use xlink:href="#widget51" filter="url(#filter50)" />
    <use xlink:href="#widget51" />
  </g>
</svg>