<?xml version="1.0" encoding="utf-8"?>
<svg version="1.1" xmlns:xlink="http://www.w3.org/1999/xlink" width="66px" height="66px" xmlns="http://www.w3.org/2000/svg">
  <defs>
    <filter x="208px" y="472px" width="66px" height="66px" filterUnits="userSpaceOnUse" id="filter54">
      <feOffset dx="1" dy="1" in="SourceAlpha" result="shadowOffsetInner" />
      <feGaussianBlur stdDeviation="2.5" in="shadowOffsetInner" result="shadowGaussian" />
      <feComposite in2="shadowGaussian" operator="atop" in="SourceAlpha" result="shadowComposite" />
      <feColorMatrix type="matrix" values="0 0 0 0 0  0 0 0 0 0  0 0 0 0 0  0 0 0 0.6980392156862745 0  " in="shadowComposite" />
    </filter>
    <g id="widget55">
      <path d="M 240 476  C 255.68 476  268 488.32  268 504  C 268 519.68  255.68 532  240 532  C 224.32 532  212 519.68  212 504  C 212 488.32  224.32 476  240 476  Z " fill-rule="nonzero" fill="#f1fa82" stroke="none" />
      <path d="M 240 476.5  C 255.4 476.5  267.5 488.6  267.5 504  C 267.5 519.4  255.4 531.5  240 531.5  C 224.6 531.5  212.5 519.4  212.5 504  C 212.5 488.6  224.6 476.5  240 476.5  Z " stroke-width="1" stroke="#ffffff" fill="none" />
    </g>
  </defs>
  <g transform="matrix(1 0 0 1 -208 -472 )">
    <use xlink:href="#widget55" filter="url(#filter54)" />
    <use xlink:href="#widget55" />
  </g>
</svg>