<?xml version="1.0" encoding="utf-8"?>
<svg version="1.1" xmlns:xlink="http://www.w3.org/1999/xlink" width="40px" height="38px" xmlns="http://www.w3.org/2000/svg">
  <g transform="matrix(1 0 0 1 -342 -10 )">
    <path d="M 38.994565217391305 16.804878048780488  C 39.664855072463766 17.3739837398374  40 18.105691056910565  40 19  C 40 19.878048780487806  39.664855072463766 20.617886178861788  38.994565217391305 21.21951219512195  L 21.304347826086957 37.09756097560975  C 20.597826086956523 37.69918699186992  19.773550724637683 38  18.831521739130434 38  C 17.907608695652172 38  17.092391304347828 37.69918699186992  16.38586956521739 37.09756097560975  L 14.347826086956522 35.26829268292683  C 13.659420289855074 34.65040650406504  13.315217391304348 33.91056910569105  13.315217391304348 33.048780487804876  C 13.315217391304348 32.1869918699187  13.659420289855074 31.447154471544714  14.347826086956522 30.829268292682926  L 22.309782608695656 23  L 3.179347826086957 23  C 2.2373188405797104 23.682926829268297  1.4719202898550727 23.378048780487806  0.8831521739130435 22.76829268292683  C 0.29438405797101447 22.15853658536585  0 21.422764227642276  0 20.5609756097561  L 0 17.4390243902439  C 0 16.57723577235772  0.29438405797101447 15.841463414634148  0.8831521739130435 15.231707317073171  C 1.4719202898550727 14.621951219512194  2.2373188405797104 14.317073170731708  3.179347826086957 15  L 22.309782608695656 15  L 14.347826086956522 7.146341463414635  C 13.659420289855074 6.560975609756097  13.315217391304348 5.829268292682929  13.315217391304348 4.951219512195122  C 13.315217391304348 4.073170731707319  13.659420289855074 3.3414634146341466  14.347826086956522 2.7560975609756087  L 16.38586956521739 0.9268292682926838  C 17.074275362318843 0.30894308943089177  17.889492753623188 0  18.831521739130434 0  C 19.791666666666668 0  20.615942028985508 0.30894308943089177  21.304347826086957 0.9268292682926838  L 38.994565217391305 16.804878048780488  Z " fill-rule="nonzero" fill="#ffffff" stroke="none" fill-opacity="0.9921568627450981" transform="matrix(1 0 0 1 342 10 )" />
  </g>
</svg>