<?xml version="1.0" encoding="utf-8"?>
<svg version="1.1" xmlns:xlink="http://www.w3.org/1999/xlink" width="43px" height="40px" xmlns="http://www.w3.org/2000/svg">
  <g transform="matrix(1 0 0 1 -227 -589 )">
    <path d="M 3.307692307692308 30.71428571428571  L 3.307692307692308 37.142857142857146  L 10.75 37.142857142857146  L 10.75 30.71428571428571  L 3.307692307692308 30.71428571428571  Z M 12.403846153846153 30.71428571428571  L 12.403846153846153 37.142857142857146  L 20.673076923076923 37.142857142857146  L 20.673076923076923 30.71428571428571  L 12.403846153846153 30.71428571428571  Z M 3.307692307692308 22.142857142857146  L 3.307692307692308 29.28571428571429  L 10.75 29.28571428571429  L 10.75 22.142857142857146  L 3.307692307692308 22.142857142857146  Z M 12.403846153846153 22.142857142857146  L 12.403846153846153 29.28571428571429  L 20.673076923076923 29.28571428571429  L 20.673076923076923 22.142857142857146  L 12.403846153846153 22.142857142857146  Z M 3.307692307692308 14.285714285714285  L 3.307692307692308 20.71428571428571  L 10.75 20.71428571428571  L 10.75 14.285714285714285  L 3.307692307692308 14.285714285714285  Z M 22.32692307692308 30.71428571428571  L 22.32692307692308 37.142857142857146  L 30.596153846153847 37.142857142857146  L 30.596153846153847 30.71428571428571  L 22.32692307692308 30.71428571428571  Z M 12.403846153846153 14.285714285714285  L 12.403846153846153 20.71428571428571  L 20.673076923076923 20.71428571428571  L 20.673076923076923 14.285714285714285  L 12.403846153846153 14.285714285714285  Z M 32.25 30.71428571428571  L 32.25 37.142857142857146  L 39.69230769230769 37.142857142857146  L 39.69230769230769 30.71428571428571  L 32.25 30.71428571428571  Z M 22.32692307692308 22.142857142857146  L 22.32692307692308 29.28571428571429  L 30.596153846153847 29.28571428571429  L 30.596153846153847 22.142857142857146  L 22.32692307692308 22.142857142857146  Z M 12.985276442307692 10.502232142857144  C 13.148938301282051 10.360863095238093  13.230769230769232 10.193452380952376  13.230769230769232 10  L 13.230769230769232 3.571428571428572  C 13.230769230769232 3.3779761904761907  13.148938301282051 3.2105654761904745  12.985276442307692 3.069196428571428  C 12.821614583333336 2.927827380952377  12.627804487179487 2.857142857142856  12.403846153846153 2.857142857142856  L 10.75 2.857142857142856  C 10.526041666666668 2.857142857142856  10.332231570512821 2.927827380952377  10.168569711538462 3.069196428571428  C 10.0049078525641 3.2105654761904745  9.923076923076923 3.3779761904761907  9.923076923076923 3.571428571428572  L 9.923076923076923 10  C 9.923076923076923 10.193452380952376  10.0049078525641 10.360863095238093  10.168569711538462 10.502232142857144  C 10.332231570512821 10.64360119047619  10.526041666666668 10.714285714285715  10.75 10.714285714285715  L 12.403846153846153 10.714285714285715  C 12.627804487179487 10.714285714285715  12.821614583333336 10.64360119047619  12.985276442307692 10.502232142857144  Z M 32.25 22.142857142857146  L 32.25 29.28571428571429  L 39.69230769230769 29.28571428571429  L 39.69230769230769 22.142857142857146  L 32.25 22.142857142857146  Z M 22.32692307692308 14.285714285714285  L 22.32692307692308 20.71428571428571  L 30.596153846153847 20.71428571428571  L 30.596153846153847 14.285714285714285  L 22.32692307692308 14.285714285714285  Z M 32.25 14.285714285714285  L 32.25 20.71428571428571  L 39.69230769230769 20.71428571428571  L 39.69230769230769 14.285714285714285  L 32.25 14.285714285714285  Z M 32.83143028846154 10.502232142857144  C 32.9950921474359 10.360863095238093  33.07692307692308 10.193452380952376  33.07692307692308 10  L 33.07692307692308 3.571428571428572  C 33.07692307692308 3.3779761904761907  32.9950921474359 3.2105654761904745  32.83143028846154 3.069196428571428  C 32.66776842948718 2.927827380952377  32.473958333333336 2.857142857142856  32.25 2.857142857142856  L 30.596153846153847 2.857142857142856  C 30.372195512820518 2.857142857142856  30.17838541666667 2.927827380952377  30.014723557692307 3.069196428571428  C 29.85106169871795 3.2105654761904745  29.76923076923077 3.3779761904761907  29.76923076923077 3.571428571428572  L 29.76923076923077 10  C 29.76923076923077 10.193452380952376  29.85106169871795 10.360863095238093  30.014723557692307 10.502232142857144  C 30.17838541666667 10.64360119047619  30.372195512820518 10.714285714285715  30.596153846153847 10.714285714285715  L 32.25 10.714285714285715  C 32.473958333333336 10.714285714285715  32.66776842948718 10.64360119047619  32.83143028846154 10.502232142857144  Z M 42.01802884615385 6.5625  C 42.672676282051285 7.127976190476191  43 7.797619047619047  43 8.571428571428573  L 43 37.142857142857146  C 43 37.91666666666667  42.672676282051285 38.586309523809526  42.01802884615385 39.151785714285715  C 41.363381410256416 39.717261904761905  40.58814102564103 40  39.69230769230769 40  L 3.307692307692308 40  C 2.411858974358975 40  1.6366185897435899 39.717261904761905  0.9819711538461537 39.151785714285715  C 0.32732371794871795 38.586309523809526  0 37.91666666666667  0 37.142857142857146  L 0 8.571428571428573  C 0 7.797619047619047  0.32732371794871795 7.127976190476191  0.9819711538461537 6.5625  C 1.6366185897435899 5.997023809523805  2.411858974358975 5.714285714285716  3.307692307692308 5.714285714285716  L 6.615384615384616 5.714285714285716  L 6.615384615384616 3.571428571428572  C 6.615384615384616 2.589285714285716  7.020232371794872 1.7485119047619024  7.829927884615384 1.0491071428571441  C 8.6396233974359 0.3497023809523814  9.61298076923077 0  10.75 0  L 12.403846153846153 0  C 13.540865384615385 0  14.514222756410259 0.3497023809523814  15.323918269230768 1.0491071428571441  C 16.133613782051285 1.7485119047619024  16.53846153846154 2.589285714285716  16.53846153846154 3.571428571428572  L 16.53846153846154 5.714285714285716  L 26.461538461538463 5.714285714285716  L 26.461538461538463 3.571428571428572  C 26.461538461538463 2.589285714285716  26.86638621794872 1.7485119047619024  27.67608173076923 1.0491071428571441  C 28.485777243589748 0.3497023809523814  29.459134615384617 0  30.596153846153847 0  L 32.25 0  C 33.38701923076923 0  34.3603766025641 0.3497023809523814  35.17007211538461 1.0491071428571441  C 35.97976762820513 1.7485119047619024  36.38461538461539 2.589285714285716  36.38461538461539 3.571428571428572  L 36.38461538461539 5.714285714285716  L 39.69230769230769 5.714285714285716  C 40.58814102564103 5.714285714285716  41.363381410256416 5.997023809523805  42.01802884615385 6.5625  Z " fill-rule="nonzero" fill="#ffffff" stroke="none" transform="matrix(1 0 0 1 227 589 )" />
  </g>
</svg>