<?xml version="1.0" encoding="utf-8"?>
<svg version="1.1" xmlns:xlink="http://www.w3.org/1999/xlink" width="29px" height="47px" xmlns="http://www.w3.org/2000/svg">
  <g transform="matrix(1 0 0 1 -35 -588 )">
    <path d="M 28.637500000000003 25.93011363636364  C 28.879166666666666 26.357386363636362  29 26.829166666666666  29 27.345454545454544  C 29 28.057575757575755  28.78854166666667 28.66287878787879  28.365625 29.16136363636364  C 27.942708333333336 29.659848484848485  27.42916666666667 29.90909090909091  26.825000000000003 29.90909090909091  C 26.0546875 29.90909090909091  25.450520833333336 29.526325757575762  25.012500000000003 28.760795454545455  L 19.86953125 19.654545454545456  L 18.85 19.654545454545456  L 18.85 23.179545454545455  L 24.446093750000003 34.15511363636364  C 24.58203125 34.42215909090909  24.65 34.71590909090909  24.65 35.03636363636364  C 24.65 35.499242424242425  24.506510416666668 35.899810606060605  24.219531250000003 36.23806818181818  C 23.932552083333338 36.57632575757576  23.592708333333338 36.74545454545455  23.200000000000003 36.74545454545455  L 18.85 36.74545454545455  L 18.85 44.00909090909091  C 18.85 44.8280303030303  18.600781249999997 45.53125  18.102343750000003 46.11875  C 17.60390625 46.706250000000004  17.00729166666667 47  16.3125 47  L 12.6875 47  C 11.992708333333335 47  11.396093749999999 46.706250000000004  10.89765625 46.11875  C 10.39921875 45.53125  10.149999999999999 44.8280303030303  10.149999999999999 44.00909090909091  L 10.149999999999999 36.74545454545455  L 5.800000000000001 36.74545454545455  C 5.407291666666667 36.74545454545455  5.067447916666667 36.57632575757576  4.780468750000001 36.23806818181818  C 4.493489583333333 35.899810606060605  4.35 35.499242424242425  4.35 35.03636363636364  C 4.35 34.71590909090909  4.41796875 34.42215909090909  4.553906250000001 34.15511363636364  L 10.149999999999999 23.179545454545455  L 10.149999999999999 19.654545454545456  L 9.130468749999999 19.654545454545456  L 3.9875000000000003 28.760795454545455  C 3.549479166666667 29.526325757575762  2.9453125 29.90909090909091  2.175 29.90909090909091  C 1.5708333333333335 29.90909090909091  1.0572916666666667 29.659848484848485  0.6343749999999999 29.16136363636364  C 0.2114583333333333 28.66287878787879  0 28.057575757575755  0 27.345454545454544  C 0 26.829166666666666  0.12083333333333333 26.357386363636362  0.36250000000000004 25.93011363636364  L 6.1625 15.67556818181818  C 7.265104166666667 13.770643939393933  8.594270833333335 12.818181818181817  10.149999999999999 12.818181818181817  L 18.85 12.818181818181817  C 20.40572916666667 12.818181818181817  21.734895833333333 13.770643939393933  22.8375 15.67556818181818  L 28.637500000000003 25.93011363636364  Z M 18.091015624999997 1.749147727272728  C 19.080338541666666 2.915246212121206  19.575000000000003 4.326136363636364  19.575000000000003 5.981818181818184  C 19.575000000000003 7.637499999999999  19.080338541666666 9.04839015151515  18.091015624999997 10.214488636363635  C 17.101692708333335 11.380587121212118  15.904687500000001 11.963636363636363  14.5 11.963636363636363  C 13.095312499999999 11.963636363636363  11.898307291666669 11.380587121212118  10.908984375 10.214488636363635  C 9.919661458333335 9.04839015151515  9.425 7.637499999999999  9.425 5.981818181818184  C 9.425 4.326136363636364  9.919661458333335 2.915246212121206  10.908984375 1.749147727272728  C 11.898307291666669 0.5830492424242392  13.095312499999999 0  14.5 0  C 15.904687500000001 0  17.101692708333335 0.5830492424242392  18.091015624999997 1.749147727272728  Z " fill-rule="nonzero" fill="#ffffff" stroke="none" transform="matrix(1 0 0 1 35 588 )" />
  </g>
</svg>