<?xml version="1.0" encoding="utf-8"?>
<svg version="1.1" xmlns:xlink="http://www.w3.org/1999/xlink" width="45px" height="41px" xmlns="http://www.w3.org/2000/svg">
  <g transform="matrix(1 0 0 1 -127 -591 )">
    <path d="M 29.028711056811243 11.871716554673181  L 31.97006719609041 14.551618814905313  L 40.024434941967016 7.213194868662188  L 37.083078802687844 4.533292608430055  L 29.028711056811243 11.871716554673181  Z M 43.76298106291998 6.086133170433721  C 44.09285277947465 6.386682956627978  44.257788637751986 6.762370189370801  44.257788637751986 7.213194868662188  C 44.257788637751986 7.6640195479535755  44.09285277947465 8.039706780696397  43.76298106291998 8.340256566890654  L 8.411728772144166 40.54917532070861  C 8.081857055589493 40.849725106902866  7.669517409896152 41  7.174709835064141 41  C 6.679902260232131 41  6.267562614538793 40.849725106902866  5.937690897984116 40.54917532070861  L 0.49480757483201016 35.59010384850336  C 0.16493585827733698 35.2895540623091  0 34.91386682956628  0 34.463042150274894  C 0 34.01221747098351  0.16493585827733698 33.63653023824069  0.49480757483201016 33.33598045204643  L 35.84605986560782 1.1270616982284667  C 36.17593158216249 0.8265119120342098  36.588271227855834 0.6762370189370791  37.083078802687844 0.6762370189370791  C 37.57788637751985 0.6762370189370791  37.9902260232132 0.8265119120342098  38.32009773976787 1.1270616982284667  L 43.76298106291998 6.086133170433721  Z M 6.29505192425168 0  L 7.119731215638363 2.4544899205864366  L 9.813683567501528 3.205864386072081  L 7.119731215638363 3.9572388515577255  L 6.29505192425168 6.4117287721441665  L 5.470372632864997 3.9572388515577255  L 2.7764202810018332 3.205864386072081  L 5.470372632864997 2.4544899205864366  L 6.29505192425168 0  Z M 15.091631032376299 1.6029321930360427  L 16.740989615149665 6.51191203420892  L 22.128894318875993 8.014660965180209  L 16.740989615149665 9.517409896151499  L 15.091631032376299 14.426389737324376  L 13.442272449602932 9.517409896151499  L 8.054367745876604 8.014660965180209  L 13.442272449602932 6.51191203420892  L 15.091631032376299 1.6029321930360427  Z M 41.48136835675015 16.029321930360414  L 42.30604764813684 18.483811850946854  L 45 19.2351863164325  L 42.30604764813684 19.986560781918143  L 41.48136835675015 22.44105070250458  L 40.65668906536347 19.986560781918143  L 37.962736713500306 19.2351863164325  L 40.65668906536347 18.483811850946854  L 41.48136835675015 16.029321930360414  Z M 23.888210140500917 0  L 24.7128894318876 2.4544899205864366  L 27.406841783750764 3.205864386072081  L 24.7128894318876 3.9572388515577255  L 23.888210140500917 6.4117287721441665  L 23.063530849114233 3.9572388515577255  L 20.36957849725107 3.205864386072081  L 23.063530849114233 2.4544899205864366  L 23.888210140500917 0  Z " fill-rule="nonzero" fill="#ebafce" stroke="none" transform="matrix(1 0 0 1 127 591 )" />
  </g>
</svg>