<?xml version="1.0" encoding="utf-8"?>
<svg version="1.1" xmlns:xlink="http://www.w3.org/1999/xlink" width="30px" height="30px" xmlns="http://www.w3.org/2000/svg">
  <g transform="matrix(1 0 0 1 -48 -241 )">
    <path d="M 19.453125 17.6953125  C 20.76822916666667 18.658854166666668  21.66666666666667 19.928385416666664  22.1484375 21.50390625  C 22.25260416666667 21.829427083333332  22.2265625 22.145182291666668  22.0703125 22.451171874999996  C 21.9140625 22.757161458333336  21.673177083333336 22.962239583333336  21.34765625 23.06640625  C 21.02213541666667 23.170572916666664  20.703125 23.14453125  20.390625 22.98828125  C 20.078125 22.83203125  19.869791666666668 22.584635416666664  19.765625 22.246093749999996  C 19.44010416666667 21.20442708333333  18.837890625000004 20.361328125  17.958984375 19.716796875  C 17.080078125000004 19.072265625  16.09375 18.75  15 18.75  C 13.90625 18.75  12.919921875 19.072265625  12.041015625 19.716796875  C 11.162109375 20.361328125  10.559895833333336 21.20442708333333  10.234375 22.246093749999996  C 10.130208333333336 22.584635416666664  9.925130208333336 22.83203125  9.619140625 22.98828125  C 9.313151041666668 23.14453125  8.997395833333334 23.170572916666664  8.671875 23.06640625  C 8.333333333333334 22.962239583333336  8.0859375 22.757161458333336  7.929687500000001 22.451171874999996  C 7.773437499999999 22.145182291666668  7.747395833333334 21.829427083333332  7.8515625 21.50390625  C 8.333333333333334 19.928385416666664  9.231770833333334 18.658854166666668  10.546875 17.6953125  C 11.861979166666668 16.731770833333332  13.346354166666668 16.250000000000004  15 16.250000000000004  C 16.653645833333332 16.250000000000004  18.138020833333336 16.731770833333332  19.453125 17.6953125  Z M 11.767578125 8.232421875  C 12.255859375 8.720703124999998  12.5 9.309895833333332  12.5 10.000000000000002  C 12.5 10.690104166666664  12.255859375 11.279296874999996  11.767578125 11.767578124999998  C 11.279296875 12.255859375000002  10.690104166666668 12.499999999999998  10 12.499999999999998  C 9.309895833333336 12.499999999999998  8.720703125 12.255859375000002  8.232421875 11.767578124999998  C 7.744140624999999 11.279296874999996  7.5 10.690104166666664  7.5 10.000000000000002  C 7.5 9.309895833333332  7.744140624999999 8.720703124999998  8.232421875 8.232421875  C 8.720703125 7.744140625000001  9.309895833333336 7.5  10 7.5  C 10.690104166666668 7.5  11.279296875 7.744140625000001  11.767578125 8.232421875  Z M 21.767578125 8.232421875  C 22.255859375 8.720703124999998  22.5 9.309895833333332  22.5 10.000000000000002  C 22.5 10.690104166666664  22.255859375 11.279296874999996  21.767578125 11.767578124999998  C 21.279296875 12.255859375000002  20.690104166666668 12.499999999999998  20 12.499999999999998  C 19.309895833333336 12.499999999999998  18.720703125 12.255859375000002  18.232421875 11.767578124999998  C 17.744140625 11.279296874999996  17.5 10.690104166666664  17.5 10.000000000000002  C 17.5 9.309895833333332  17.744140625 8.720703124999998  18.232421875 8.232421875  C 18.720703125 7.744140625000001  19.309895833333336 7.5  20 7.5  C 20.690104166666668 7.5  21.279296875 7.744140625000001  21.767578125 8.232421875  Z M 26.50390625 19.853515625000004  C 27.16796875 18.310546875  27.5 16.692708333333336  27.5 15  C 27.5 13.307291666666664  27.16796875 11.689453125  26.50390625 10.146484375000002  C 25.83984375 8.603515624999998  24.951171875 7.275390625000001  23.837890625 6.162109375000001  C 22.724609375 5.048828125000001  21.396484375 4.16015625  19.853515625 3.496093750000001  C 18.310546875 2.832031249999999  16.692708333333336 2.500000000000001  15 2.500000000000001  C 13.307291666666666 2.500000000000001  11.689453125 2.832031249999999  10.146484375 3.496093750000001  C 8.603515625 4.16015625  7.275390625 5.048828125000001  6.162109375 6.162109375000001  C 5.048828125 7.275390625000001  4.16015625 8.603515624999998  3.49609375 10.146484375000002  C 2.83203125 11.689453125  2.5 13.307291666666664  2.5 15  C 2.5 16.692708333333336  2.83203125 18.310546875  3.49609375 19.853515625000004  C 4.16015625 21.396484374999996  5.048828125 22.724609375  6.162109375 23.837890625  C 7.275390625 24.951171875  8.603515625 25.83984375  10.146484375 26.50390625  C 11.689453125 27.16796875  13.307291666666666 27.5  15 27.5  C 16.692708333333336 27.5  18.310546875 27.16796875  19.853515625 26.50390625  C 21.396484375 25.83984375  22.724609375 24.951171875  23.837890625 23.837890625  C 24.951171875 22.724609375  25.83984375 21.396484374999996  26.50390625 19.853515625000004  Z M 27.98828125 7.470703125  C 29.32942708333333 9.76888020833333  30 12.278645833333329  30 15  C 30 17.721354166666668  29.32942708333333 20.231119791666664  27.98828125 22.529296875  C 26.64713541666667 24.827473958333332  24.827473958333332 26.647135416666668  22.529296875 27.98828125  C 20.23111979166667 29.329427083333336  17.721354166666668 30  15 30  C 12.278645833333334 30  9.768880208333334 29.329427083333336  7.470703125 27.98828125  C 5.172526041666667 26.647135416666668  3.352864583333334 24.827473958333332  2.01171875 22.529296875  C 0.6705729166666665 20.231119791666664  0 17.721354166666668  0 15  C 0 12.278645833333329  0.6705729166666665 9.76888020833333  2.01171875 7.470703125  C 3.352864583333334 5.172526041666666  5.172526041666667 3.3528645833333304  7.470703125 2.011718749999999  C 9.768880208333334 0.6705729166666641  12.278645833333334 0  15 0  C 17.721354166666668 0  20.23111979166667 0.6705729166666641  22.529296875 2.011718749999999  C 24.827473958333332 3.3528645833333304  26.64713541666667 5.172526041666666  27.98828125 7.470703125  Z " fill-rule="nonzero" fill="#fdfdfd" stroke="none" fill-opacity="0.8156862745098039" transform="matrix(1 0 0 1 48 241 )" />
  </g>
</svg>