<?xml version="1.0" encoding="utf-8"?>
<svg version="1.1" xmlns:xlink="http://www.w3.org/1999/xlink" width="30px" height="30px" xmlns="http://www.w3.org/2000/svg">
  <g transform="matrix(1 0 0 1 -318 -241 )">
    <path d="M 22.0703125 17.548828125  C 22.2265625 17.85481770833333  22.25260416666667 18.170572916666664  22.1484375 18.496093749999996  C 21.66666666666667 20.071614583333332  20.76822916666667 21.34114583333333  19.453125 22.304687499999996  C 18.138020833333336 23.268229166666664  16.653645833333332 23.75  15 23.75  C 13.346354166666668 23.75  11.861979166666668 23.268229166666664  10.546875 22.304687499999996  C 9.231770833333334 21.34114583333333  8.333333333333334 20.071614583333332  7.8515625 18.496093749999996  C 7.747395833333334 18.170572916666664  7.773437499999999 17.85481770833333  7.929687500000001 17.548828125  C 8.0859375 17.242838541666664  8.333333333333334 17.037760416666664  8.671875 16.93359375  C 8.997395833333334 16.82942708333333  9.313151041666668 16.855468749999996  9.619140625 17.011718750000004  C 9.925130208333336 17.16796875  10.130208333333336 17.41536458333333  10.234375 17.75390625  C 10.559895833333336 18.795572916666664  11.162109375 19.638671874999996  12.041015625 20.283203124999996  C 12.919921875 20.927734374999996  13.90625 21.249999999999996  15 21.249999999999996  C 16.09375 21.249999999999996  17.080078125000004 20.927734374999996  17.958984375 20.283203124999996  C 18.837890625000004 19.638671874999996  19.44010416666667 18.795572916666664  19.765625 17.75390625  C 19.869791666666668 17.41536458333333  20.078125 17.16796875  20.390625 17.011718750000004  C 20.703125 16.855468749999996  21.02213541666667 16.82942708333333  21.34765625 16.93359375  C 21.673177083333336 17.037760416666664  21.9140625 17.242838541666664  22.0703125 17.548828125  Z M 11.767578125 8.232421875  C 12.255859375 8.720703124999998  12.5 9.309895833333332  12.5 10.000000000000002  C 12.5 10.690104166666664  12.255859375 11.279296874999996  11.767578125 11.767578124999998  C 11.279296875 12.255859375000002  10.690104166666668 12.499999999999998  10 12.499999999999998  C 9.309895833333336 12.499999999999998  8.720703125 12.255859375000002  8.232421875 11.767578124999998  C 7.744140624999999 11.279296874999996  7.5 10.690104166666664  7.5 10.000000000000002  C 7.5 9.309895833333332  7.744140624999999 8.720703124999998  8.232421875 8.232421875  C 8.720703125 7.744140625000001  9.309895833333336 7.5  10 7.5  C 10.690104166666668 7.5  11.279296875 7.744140625000001  11.767578125 8.232421875  Z M 21.767578125 8.232421875  C 22.255859375 8.720703124999998  22.5 9.309895833333332  22.5 10.000000000000002  C 22.5 10.690104166666664  22.255859375 11.279296874999996  21.767578125 11.767578124999998  C 21.279296875 12.255859375000002  20.690104166666668 12.499999999999998  20 12.499999999999998  C 19.309895833333336 12.499999999999998  18.720703125 12.255859375000002  18.232421875 11.767578124999998  C 17.744140625 11.279296874999996  17.5 10.690104166666664  17.5 10.000000000000002  C 17.5 9.309895833333332  17.744140625 8.720703124999998  18.232421875 8.232421875  C 18.720703125 7.744140625000001  19.309895833333336 7.5  20 7.5  C 20.690104166666668 7.5  21.279296875 7.744140625000001  21.767578125 8.232421875  Z M 26.50390625 19.853515625000004  C 27.16796875 18.310546875  27.5 16.692708333333336  27.5 15  C 27.5 13.307291666666664  27.16796875 11.689453125  26.50390625 10.146484375000002  C 25.83984375 8.603515624999998  24.951171875 7.275390625000001  23.837890625 6.162109375000001  C 22.724609375 5.048828125000001  21.396484375 4.16015625  19.853515625 3.496093750000001  C 18.310546875 2.832031249999999  16.692708333333336 2.500000000000001  15 2.500000000000001  C 13.307291666666666 2.500000000000001  11.689453125 2.832031249999999  10.146484375 3.496093750000001  C 8.603515625 4.16015625  7.275390625 5.048828125000001  6.162109375 6.162109375000001  C 5.048828125 7.275390625000001  4.16015625 8.603515624999998  3.49609375 10.146484375000002  C 2.83203125 11.689453125  2.5 13.307291666666664  2.5 15  C 2.5 16.692708333333336  2.83203125 18.310546875  3.49609375 19.853515625000004  C 4.16015625 21.396484374999996  5.048828125 22.724609375  6.162109375 23.837890625  C 7.275390625 24.951171875  8.603515625 25.83984375  10.146484375 26.50390625  C 11.689453125 27.16796875  13.307291666666666 27.5  15 27.5  C 16.692708333333336 27.5  18.310546875 27.16796875  19.853515625 26.50390625  C 21.396484375 25.83984375  22.724609375 24.951171875  23.837890625 23.837890625  C 24.951171875 22.724609375  25.83984375 21.396484374999996  26.50390625 19.853515625000004  Z M 27.98828125 7.470703125  C 29.32942708333333 9.76888020833333  30 12.278645833333329  30 15  C 30 17.721354166666668  29.32942708333333 20.231119791666664  27.98828125 22.529296875  C 26.64713541666667 24.827473958333332  24.827473958333332 26.647135416666668  22.529296875 27.98828125  C 20.23111979166667 29.329427083333336  17.721354166666668 30  15 30  C 12.278645833333334 30  9.768880208333334 29.329427083333336  7.470703125 27.98828125  C 5.172526041666667 26.647135416666668  3.352864583333334 24.827473958333332  2.01171875 22.529296875  C 0.6705729166666665 20.231119791666664  0 17.721354166666668  0 15  C 0 12.278645833333329  0.6705729166666665 9.76888020833333  2.01171875 7.470703125  C 3.352864583333334 5.172526041666666  5.172526041666667 3.3528645833333304  7.470703125 2.011718749999999  C 9.768880208333334 0.6705729166666641  12.278645833333334 0  15 0  C 17.721354166666668 0  20.23111979166667 0.6705729166666641  22.529296875 2.011718749999999  C 24.827473958333332 3.3528645833333304  26.64713541666667 5.172526041666666  27.98828125 7.470703125  Z " fill-rule="nonzero" fill="#fdfdfd" stroke="none" fill-opacity="0.8156862745098039" transform="matrix(1 0 0 1 318 241 )" />
  </g>
</svg>