<?xml version="1.0" encoding="utf-8"?>
<svg version="1.1" xmlns:xlink="http://www.w3.org/1999/xlink" width="35px" height="30px" xmlns="http://www.w3.org/2000/svg">
  <g transform="matrix(1 0 0 1 -36 -13 )">
    <path d="M 26.033528645833332 12.685546875  C 26.17784288194445 12.809244791666664  26.25 12.955729166666664  26.25 13.125  L 26.25 16.875  C 26.25 17.044270833333336  26.17784288194445 17.190755208333336  26.033528645833332 17.314453125  C 25.88921440972222 17.438151041666664  25.71831597222222 17.499999999999996  25.520833333333332 17.499999999999996  L 17.5 17.499999999999996  L 17.5 21.249999999999996  C 17.5 21.432291666666664  17.431640625 21.582031250000004  17.294921875 21.699218750000004  C 17.158203125 21.816406250000004  16.983506944444446 21.875000000000004  16.770833333333336 21.875000000000004  C 16.588541666666664 21.875000000000004  16.40625 21.80989583333333  16.223958333333336 21.6796875  L 8.955078125 15.449218749999998  C 8.818359375 15.332031249999998  8.75 15.182291666666664  8.75 15  C 8.75 14.817708333333332  8.818359375 14.667968749999998  8.955078125 14.550781249999998  L 16.246744791666664 8.300781250000002  C 16.383463541666664 8.183593750000002  16.558159722222225 8.125000000000002  16.770833333333336 8.125000000000002  C 16.968315972222225 8.125000000000002  17.139214409722225 8.18684895833333  17.283528645833336 8.310546874999998  C 17.427842881944443 8.434244791666664  17.5 8.580729166666664  17.5 8.749999999999998  L 17.5 12.499999999999998  L 25.520833333333332 12.499999999999998  C 25.71831597222222 12.499999999999998  25.88921440972222 12.561848958333336  26.033528645833332 12.685546875  Z M 28.232421875 20.33203125  C 29.34136284722222 18.70442708333333  29.895833333333332 16.927083333333336  29.895833333333332 15  C 29.895833333333332 13.072916666666664  29.34136284722222 11.295572916666666  28.232421875 9.66796875  C 27.123480902777782 8.04036458333333  25.619574652777782 6.75130208333333  23.720703125 5.80078125  C 21.82183159722222 4.850260416666666  19.74826388888889 4.375000000000001  17.5 4.375000000000001  C 15.25173611111111 4.375000000000001  13.178168402777779 4.850260416666666  11.279296875 5.80078125  C 9.380425347222223 6.75130208333333  7.876519097222222 8.04036458333333  6.767578125 9.66796875  C 5.658637152777779 11.295572916666666  5.104166666666667 13.072916666666664  5.104166666666667 15  C 5.104166666666667 16.927083333333336  5.658637152777779 18.70442708333333  6.767578125 20.33203125  C 7.876519097222222 21.959635416666664  9.380425347222223 23.248697916666668  11.279296875 24.19921875  C 13.178168402777779 25.149739583333332  15.25173611111111 25.625  17.5 25.625  C 19.74826388888889 25.625  21.82183159722222 25.149739583333332  23.720703125 24.19921875  C 25.619574652777782 23.248697916666668  27.123480902777782 21.959635416666664  28.232421875 20.33203125  Z M 32.65299479166667 7.470703125  C 34.21766493055555 9.76888020833333  35 12.278645833333329  35 15  C 35 17.721354166666668  34.21766493055555 20.231119791666664  32.65299479166667 22.529296875  C 31.088324652777782 24.827473958333332  28.96538628472222 26.647135416666668  26.2841796875 27.98828125  C 23.602973090277782 29.329427083333336  20.674913194444446 30  17.5 30  C 14.325086805555557 30  11.397026909722223 29.329427083333336  8.7158203125 27.98828125  C 6.034613715277779 26.647135416666668  3.9116753472222228 24.827473958333332  2.3470052083333335 22.529296875  C 0.7823350694444443 20.231119791666664  0 17.721354166666668  0 15  C 0 12.278645833333329  0.7823350694444443 9.76888020833333  2.3470052083333335 7.470703125  C 3.9116753472222228 5.172526041666666  6.034613715277779 3.3528645833333304  8.7158203125 2.011718749999999  C 11.397026909722223 0.6705729166666641  14.325086805555557 0  17.5 0  C 20.674913194444446 0  23.602973090277782 0.6705729166666641  26.2841796875 2.011718749999999  C 28.96538628472222 3.3528645833333304  31.088324652777782 5.172526041666666  32.65299479166667 7.470703125  Z " fill-rule="nonzero" fill="#f2f2f2" stroke="none" transform="matrix(1 0 0 1 36 13 )" />
  </g>
</svg>